<svg xmlns="http://www.w3.org/2000/svg" xmlns:xlink="http://www.w3.org/1999/xlink" id="processonSvg1000" viewBox="117.75810465526882 139.7266221374046 538.7067842573774 474.59351145038175" width="538.7067842573774" height="474.59351145038175"><defs id="ProcessOnDefs1001"><marker id="ProcessOnMarker1012" markerUnits="userSpaceOnUse" orient="auto" markerWidth="16.23606797749979" markerHeight="10.550836550532098" viewBox="-1.0 -1.3763819204711736 16.23606797749979 10.550836550532098" refX="-1.0" refY="3.8990363547948754"><path id="ProcessOnPath1013" d="M12.0 3.8990363547948754L0.0 7.798072709589751V0.0Z" stroke="#000000" stroke-width="2.0" fill="#000000" transform="matrix(1.0,0.0,0.0,1.0,0.0,0.0)"/></marker><marker id="ProcessOnMarker1019" markerUnits="userSpaceOnUse" orient="auto" markerWidth="16.23606797749979" markerHeight="10.550836550532098" viewBox="-1.0 -1.3763819204711736 16.23606797749979 10.550836550532098" refX="-1.0" refY="3.8990363547948754"><path id="ProcessOnPath1020" d="M12.0 3.8990363547948754L0.0 7.798072709589751V0.0Z" stroke="#cc6600" stroke-width="2.0" fill="#cc6600" transform="matrix(1.0,0.0,0.0,1.0,0.0,0.0)"/></marker><marker id="ProcessOnMarker1035" markerUnits="userSpaceOnUse" orient="auto" markerWidth="16.23606797749979" markerHeight="10.550836550532098" viewBox="-1.0 -1.3763819204711736 16.23606797749979 10.550836550532098" refX="-1.0" refY="3.8990363547948754"><path id="ProcessOnPath1036" d="M12.0 3.8990363547948754L0.0 7.798072709589751V0.0Z" stroke="#000000" stroke-width="2.0" fill="#000000" transform="matrix(1.0,0.0,0.0,1.0,0.0,0.0)"/></marker><marker id="ProcessOnMarker1042" markerUnits="userSpaceOnUse" orient="auto" markerWidth="16.23606797749979" markerHeight="10.550836550532098" viewBox="-1.0 -1.3763819204711736 16.23606797749979 10.550836550532098" refX="-1.0" refY="3.8990363547948754"><path id="ProcessOnPath1043" d="M12.0 3.8990363547948754L0.0 7.798072709589751V0.0Z" stroke="#cc6600" stroke-width="2.0" fill="#cc6600" transform="matrix(1.0,0.0,0.0,1.0,0.0,0.0)"/></marker><marker id="ProcessOnMarker1049" markerUnits="userSpaceOnUse" orient="auto" markerWidth="16.23606797749979" markerHeight="10.550836550532098" viewBox="-1.0 -1.3763819204711736 16.23606797749979 10.550836550532098" refX="-1.0" refY="3.8990363547948754"><path id="ProcessOnPath1050" d="M12.0 3.8990363547948754L0.0 7.798072709589751V0.0Z" stroke="#000000" stroke-width="2.0" fill="#000000" transform="matrix(1.0,0.0,0.0,1.0,0.0,0.0)"/></marker><marker id="ProcessOnMarker1056" markerUnits="userSpaceOnUse" orient="auto" markerWidth="16.23606797749979" markerHeight="10.550836550532098" viewBox="-1.0 -1.3763819204711736 16.23606797749979 10.550836550532098" refX="-1.0" refY="3.8990363547948754"><path id="ProcessOnPath1057" d="M12.0 3.8990363547948754L0.0 7.798072709589751V0.0Z" stroke="#cc6600" stroke-width="2.0" fill="#cc6600" transform="matrix(1.0,0.0,0.0,1.0,0.0,0.0)"/></marker><marker id="ProcessOnMarker1063" markerUnits="userSpaceOnUse" orient="auto" markerWidth="16.23606797749979" markerHeight="10.550836550532098" viewBox="-1.0 -1.3763819204711736 16.23606797749979 10.550836550532098" refX="-1.0" refY="3.8990363547948754"><path id="ProcessOnPath1064" d="M12.0 3.8990363547948754L0.0 7.798072709589751V0.0Z" stroke="#cc6600" stroke-width="2.0" fill="#cc6600" transform="matrix(1.0,0.0,0.0,1.0,0.0,0.0)"/></marker></defs><g id="ProcessOnG1002"><path id="ProcessOnPath1003" d="M117.75810465526882 139.7266221374046H656.4648889126463V614.3201335877864H117.75810465526888V139.7266221374046Z" fill="none"/><g id="ProcessOnG1004"><g id="ProcessOnG1005" transform="matrix(1.0,0.0,0.0,1.0,466.6707577750509,159.7266221374046)" opacity="1.0"><path id="ProcessOnPath1006" d="M84.89706556879764 30.0L84.89706556879764 434.5935114503818" stroke="#000000" stroke-width="2.0" stroke-dasharray="2.0 3.0" opacity="1.0" fill="none"/><path id="ProcessOnPath1007" d="M0.0 0.0L169.7941311375953 0.0L169.7941311375953 30.0L0.0 30.0Z" stroke="#000000" stroke-width="2.0" stroke-dasharray="none" opacity="1.0" fill="#ffffcc"/><g id="ProcessOnG1008" transform="matrix(1.0,0.0,0.0,1.0,10.0,6.875)"><text id="ProcessOnText1009" fill="#000000" font-size="13" x="73.89706556879764" y="13.325" font-family="微软雅黑" font-weight="bold" font-style="normal" text-decoration="none" family="微软雅黑" text-anchor="middle" size="13">Generic OnOff Server</text></g></g><g id="ProcessOnG1010"><path id="ProcessOnPath1011" d="M252.1999969482422 287.08888721466064L394.6999969482422 287.08888721466064L394.6999969482422 289.5255673312359L521.9639289707424 289.5255673312359" stroke="#000000" stroke-width="2.0" stroke-dasharray="none" fill="none" marker-end="url(#ProcessOnMarker1012)"/><g id="ProcessOnG1014" transform="matrix(1.0,0.0,0.0,1.0,388.3003030177799,279.58888721466064)"><path id="ProcessOnPath1015" d="M0 0H117.0V15.0H0Z" fill="#fff" transform="matrix(1.0,0.0,0.0,1.0,-58.5,0.0)"/><text id="ProcessOnText1016" fill="#000000" font-size="12" x="0.0" y="12.3" font-family="微软雅黑" font-weight="bold" font-style="normal" text-decoration="none" family="微软雅黑" text-anchor="middle" size="12">Generic OnOff Get </text></g></g><g id="ProcessOnG1017"><path id="ProcessOnPath1018" d="M537.3333282470703 318.6666717529297L394.8333282470703 318.6666717529297L394.8333282470703 318.6666717529297L267.5693962245701 318.6666717529297" stroke="#cc6600" stroke-width="2.0" stroke-dasharray="10.0 4.0" fill="none" marker-end="url(#ProcessOnMarker1019)"/><g id="ProcessOnG1021" transform="matrix(1.0,0.0,0.0,1.0,402.45136223582017,311.1666717529297)"><path id="ProcessOnPath1022" d="M0 0H138.0V15.0H0Z" fill="#fff" transform="matrix(1.0,0.0,0.0,1.0,-69.0,0.0)"/><text id="ProcessOnText1023" fill="#000000" font-size="12" x="0.0" y="12.3" font-family="微软雅黑" font-weight="bold" font-style="normal" text-decoration="none" family="微软雅黑" text-anchor="middle" size="12">Generic OnOff Status  </text></g></g><g id="ProcessOnG1024" transform="matrix(1.0,0.0,0.0,1.0,536.5678233438485,262.20000076293945)" opacity="1.0"><path id="ProcessOnPath1025" d="M0.0 4.0Q0.0 0.0 4.0 0.0L26.0 0.0Q30.0 0.0 30.0 4.0L30.0 308.79999923706055Q30.0 312.79999923706055 26.0 312.79999923706055L4.0 312.79999923706055Q0.0 312.79999923706055 0.0 308.79999923706055L0.0 4.0Z" stroke="#990000" stroke-width="2.0" stroke-dasharray="none" opacity="1.0" fill="#ffffff"/></g><g id="ProcessOnG1026" transform="matrix(1.0,0.0,0.0,1.0,137.75810465526882,159.7266221374046)" opacity="1.0"><path id="ProcessOnPath1027" d="M99.91934013968387 30.0L99.91934013968387 434.5935114503818" stroke="#000000" stroke-width="2.0" stroke-dasharray="2.0 3.0" opacity="1.0" fill="none"/><path id="ProcessOnPath1028" d="M0.0 0.0L199.83868027936774 0.0L199.83868027936774 30.0L0.0 30.0Z" stroke="#000000" stroke-width="2.0" stroke-dasharray="none" opacity="1.0" fill="#ffffff"/><g id="ProcessOnG1029" transform="matrix(1.0,0.0,0.0,1.0,10.0,5.625)"><text id="ProcessOnText1030" fill="#000000" font-size="15" x="88.91934013968387" y="15.375" font-family="微软雅黑" font-weight="bold" font-style="normal" text-decoration="none" family="微软雅黑" text-anchor="middle" size="15">Generic OnOff Client</text></g></g><g id="ProcessOnG1031" transform="matrix(1.0,0.0,0.0,1.0,222.67744479495272,259.0)" opacity="1.0"><path id="ProcessOnPath1032" d="M0.0 4.0Q0.0 0.0 4.0 0.0L26.0 0.0Q30.0 0.0 30.0 4.0L30.0 312.0Q30.0 316.0 26.0 316.0L4.0 316.0Q0.0 316.0 0.0 312.0L0.0 4.0Z" stroke="#990000" stroke-width="2.0" stroke-dasharray="none" opacity="1.0" fill="#ffffff"/></g><g id="ProcessOnG1033"><path id="ProcessOnPath1034" d="M252.0 359.94444444444446L394.5 359.94444444444446L394.5 362.1715919698996L521.7639320225002 362.1715919698996" stroke="#000000" stroke-width="2.0" stroke-dasharray="none" fill="none" marker-end="url(#ProcessOnMarker1035)"/><g id="ProcessOnG1037" transform="matrix(1.0,0.0,0.0,1.0,387.99553977397767,352.44444444444446)"><path id="ProcessOnPath1038" d="M0 0H115.0V15.0H0Z" fill="#fff" transform="matrix(1.0,0.0,0.0,1.0,-57.5,0.0)"/><text id="ProcessOnText1039" fill="#000000" font-size="12" x="0.0" y="12.3" font-family="微软雅黑" font-weight="bold" font-style="normal" text-decoration="none" family="微软雅黑" text-anchor="middle" size="12">Generic OnOff Set </text></g></g><g id="ProcessOnG1040"><path id="ProcessOnPath1041" d="M537.0 394.3846602476979L394.8387223974764 394.3846602476979L394.8387223974764 394.3846602476979L267.9135127724525 394.3846602476979" stroke="#cc6600" stroke-width="2.0" stroke-dasharray="10.0 4.0" fill="none" marker-end="url(#ProcessOnMarker1042)"/><g id="ProcessOnG1044" transform="matrix(1.0,0.0,0.0,1.0,402.4567563862263,386.8846602476979)"><path id="ProcessOnPath1045" d="M0 0H138.0V15.0H0Z" fill="#fff" transform="matrix(1.0,0.0,0.0,1.0,-69.0,0.0)"/><text id="ProcessOnText1046" fill="#000000" font-size="12" x="0.0" y="12.3" font-family="微软雅黑" font-weight="bold" font-style="normal" text-decoration="none" family="微软雅黑" text-anchor="middle" size="12">Generic OnOff Status  </text></g></g><g id="ProcessOnG1047"><path id="ProcessOnPath1048" d="M252.67744479495272 460.0L394.8387223974764 460.0L394.8387223974764 462.0L521.7639320225002 462.0" stroke="#000000" stroke-width="2.0" stroke-dasharray="none" fill="none" marker-end="url(#ProcessOnMarker1049)"/><g id="ProcessOnG1051" transform="matrix(1.0,0.0,0.0,1.0,388.22068840872646,452.5)"><path id="ProcessOnPath1052" d="M0 0H220.0V15.0H0Z" fill="#fff" transform="matrix(1.0,0.0,0.0,1.0,-110.0,0.0)"/><text id="ProcessOnText1053" fill="#000000" font-size="12" x="0.0" y="12.3" font-family="微软雅黑" font-weight="bold" font-style="normal" text-decoration="none" family="微软雅黑" text-anchor="middle" size="12">Generic OnOff Set Unacknowledged</text></g></g><g id="ProcessOnG1054"><path id="ProcessOnPath1055" d="M537.0 517.0L394.5 517.0L394.5 516.8472222222222L267.2360679774998 516.8472222222222" stroke="#cc6600" stroke-width="2.0" stroke-dasharray="10.0 4.0" fill="none" marker-end="url(#ProcessOnMarker1056)"/></g><g id="ProcessOnG1058" transform="matrix(1.0,0.0,0.0,1.0,387.3333282470703,507.0)" opacity="1.0"><path id="ProcessOnPath1059" d="M0.0 0.0L20.0 20.0M20.0 0.0L0.0 20.0" stroke="#323232" stroke-width="4.0" stroke-dasharray="none" opacity="1.0" fill="none"/><path id="ProcessOnPath1060" d="M0.0 0.0L20.0 0.0L20.0 20.0L0.0 20.0Z" stroke="none" stroke-width="0.0" stroke-dasharray="none" opacity="1.0" fill="none"/></g><g id="ProcessOnG1061"><path id="ProcessOnPath1062" d="M537.3333282470703 558.3333435058594L396.50538652101153 558.3333435058594L396.50538652101153 558.3846602476979L270.9135127724525 558.3846602476979" stroke="#cc6600" stroke-width="2.0" stroke-dasharray="10.0 4.0" fill="none" marker-end="url(#ProcessOnMarker1063)"/><g id="ProcessOnG1065" transform="matrix(1.0,0.0,0.0,1.0,404.0977621388422,550.8333435058594)"><path id="ProcessOnPath1066" d="M0 0H138.0V15.0H0Z" fill="#fff" transform="matrix(1.0,0.0,0.0,1.0,-69.0,0.0)"/><text id="ProcessOnText1067" fill="#000000" font-size="12" x="0.0" y="12.3" font-family="微软雅黑" font-weight="bold" font-style="normal" text-decoration="none" family="微软雅黑" text-anchor="middle" size="12">Generic OnOff Status  </text></g></g></g></g></svg>