<svg xmlns="http://www.w3.org/2000/svg" xmlns:xlink="http://www.w3.org/1999/xlink" id="processonSvg1000" viewBox="65.0 117.01704502105713 1148.0 473.0000066757202" width="1148.0" height="473.0000066757202"><defs id="ProcessOnDefs1001"><marker id="ProcessOnMarker1045" markerUnits="userSpaceOnUse" orient="auto" markerWidth="16.578173737993104" markerHeight="20.67308864962845" viewBox="-1.1755705045849463 -1.618033988749895 16.578173737993104 20.67308864962845" refX="2.2270327288232132" refY="8.71851033606433"><path id="ProcessOnPath1046" d="M0 0L12.0 8.71851033606433L0 17.43702067212866" stroke="#a1a1a1" stroke-width="4.0" fill="none" transform="matrix(-1.0,1.2246467991473532E-16,-1.2246467991473532E-16,-1.0,14.227032728823211,17.43702067212866)"/></marker><marker id="ProcessOnMarker1079" markerUnits="userSpaceOnUse" orient="auto" markerWidth="16.578173737993104" markerHeight="20.67308864962845" viewBox="-1.1755705045849463 -1.618033988749895 16.578173737993104 20.67308864962845" refX="2.2270327288232132" refY="8.71851033606433"><path id="ProcessOnPath1080" d="M0 0L12.0 8.71851033606433L0 17.43702067212866" stroke="#a1a1a1" stroke-width="4.0" fill="none" transform="matrix(-1.0,1.2246467991473532E-16,-1.2246467991473532E-16,-1.0,14.227032728823211,17.43702067212866)"/></marker><marker id="ProcessOnMarker1092" markerUnits="userSpaceOnUse" orient="auto" markerWidth="16.578173737993104" markerHeight="20.67308864962845" viewBox="-1.1755705045849463 -1.618033988749895 16.578173737993104 20.67308864962845" refX="2.2270327288232132" refY="8.71851033606433"><path id="ProcessOnPath1093" d="M0 0L12.0 8.71851033606433L0 17.43702067212866" stroke="#a1a1a1" stroke-width="4.0" fill="none" transform="matrix(-1.0,1.2246467991473532E-16,-1.2246467991473532E-16,-1.0,14.227032728823211,17.43702067212866)"/></marker></defs><g id="ProcessOnG1002"><path id="ProcessOnPath1003" d="M65.0 117.01704502105713H1213.0V590.0170516967773H65.0V117.01704502105713Z" fill="none"/><g id="ProcessOnG1004"><g id="ProcessOnG1005"><path id="ProcessOnPath1006" d="M85.0 318.0L639.0 318.0L639.0 318.0L1193.0 318.0" stroke="#323232" stroke-width="8.0" stroke-dasharray="none" fill="none"/></g><g id="ProcessOnG1007"><path id="ProcessOnPath1008" d="M85.0 325.0L639.0 325.0L639.0 325.0L1193.0 325.0" stroke="#ffffcc" stroke-width="8.0" stroke-dasharray="none" fill="none"/></g><g id="ProcessOnG1009"><path id="ProcessOnPath1010" d="M85.0 333.0L639.0 333.0L639.0 333.0L1193.0 333.0" stroke="#323232" stroke-width="8.0" stroke-dasharray="none" fill="none"/></g><g id="ProcessOnG1011" transform="matrix(1.0,0.0,0.0,1.0,170.0,301.0)" opacity="1.0"><path id="ProcessOnPath1012" d="M10.15 0.0L47.85 0.0L58.0 24.166666666666668L47.85 48.333333333333336L10.15 48.333333333333336L0.0 24.166666666666668L10.15 0.0Z" stroke="#ffffff" stroke-width="1.0" stroke-dasharray="none" opacity="1.0" fill="#99ccff"/><g id="ProcessOnG1013" transform="matrix(1.0,0.0,0.0,1.0,10.0,10.416666666666668)"><text id="ProcessOnText1014" fill="#ffffff" font-size="22" x="18.0" y="22.55" font-family="微软雅黑" font-weight="normal" font-style="normal" text-decoration="none" family="微软雅黑" text-anchor="middle" size="22">01</text></g></g><g id="ProcessOnG1015" transform="matrix(1.0,0.0,0.0,1.0,346.4,301.0)" opacity="1.0"><path id="ProcessOnPath1016" d="M10.15 0.0L47.85 0.0L58.0 24.166666666666668L47.85 48.333333333333336L10.15 48.333333333333336L0.0 24.166666666666668L10.15 0.0Z" stroke="#ffffff" stroke-width="1.0" stroke-dasharray="none" opacity="1.0" fill="#ffcccc"/><g id="ProcessOnG1017" transform="matrix(1.0,0.0,0.0,1.0,10.0,10.416666666666668)"><text id="ProcessOnText1018" fill="#ffffff" font-size="22" x="18.0" y="22.55" font-family="微软雅黑" font-weight="normal" font-style="normal" text-decoration="none" family="微软雅黑" text-anchor="middle" size="22">02</text></g></g><g id="ProcessOnG1019" transform="matrix(1.0,0.0,0.0,1.0,522.8,301.0)" opacity="1.0"><path id="ProcessOnPath1020" d="M10.15 0.0L47.85 0.0L58.0 24.166666666666668L47.85 48.333333333333336L10.15 48.333333333333336L0.0 24.166666666666668L10.15 0.0Z" stroke="#ffffff" stroke-width="1.0" stroke-dasharray="none" opacity="1.0" fill="#ffb366"/><g id="ProcessOnG1021" transform="matrix(1.0,0.0,0.0,1.0,10.0,10.416666666666668)"><text id="ProcessOnText1022" fill="#ffffff" font-size="22" x="18.0" y="22.55" font-family="微软雅黑" font-weight="normal" font-style="normal" text-decoration="none" family="微软雅黑" text-anchor="middle" size="22">03</text></g></g><g id="ProcessOnG1023" transform="matrix(1.0,0.0,0.0,1.0,699.1999999999999,301.0)" opacity="1.0"><path id="ProcessOnPath1024" d="M10.15 0.0L47.85 0.0L58.0 24.166666666666668L47.85 48.333333333333336L10.15 48.333333333333336L0.0 24.166666666666668L10.15 0.0Z" stroke="#ffffff" stroke-width="1.0" stroke-dasharray="none" opacity="1.0" fill="#ffcce6"/><g id="ProcessOnG1025" transform="matrix(1.0,0.0,0.0,1.0,10.0,10.416666666666668)"><text id="ProcessOnText1026" fill="#ffffff" font-size="22" x="18.0" y="22.55" font-family="微软雅黑" font-weight="normal" font-style="normal" text-decoration="none" family="微软雅黑" text-anchor="middle" size="22">04</text></g></g><g id="ProcessOnG1027" transform="matrix(1.0,0.0,0.0,1.0,875.5999999999999,301.0)" opacity="1.0"><path id="ProcessOnPath1028" d="M10.15 0.0L47.85 0.0L58.0 24.166666666666668L47.85 48.333333333333336L10.15 48.333333333333336L0.0 24.166666666666668L10.15 0.0Z" stroke="#ffffff" stroke-width="1.0" stroke-dasharray="none" opacity="1.0" fill="#cccc00"/><g id="ProcessOnG1029" transform="matrix(1.0,0.0,0.0,1.0,10.0,10.416666666666668)"><text id="ProcessOnText1030" fill="#ffffff" font-size="22" x="18.0" y="22.55" font-family="微软雅黑" font-weight="normal" font-style="normal" text-decoration="none" family="微软雅黑" text-anchor="middle" size="22">05</text></g></g><g id="ProcessOnG1031" transform="matrix(1.0,0.0,0.0,1.0,1052.0,301.0)" opacity="1.0"><path id="ProcessOnPath1032" d="M10.15 0.0L47.85 0.0L58.0 24.166666666666668L47.85 48.333333333333336L10.15 48.333333333333336L0.0 24.166666666666668L10.15 0.0Z" stroke="#ffffff" stroke-width="1.0" stroke-dasharray="none" opacity="1.0" fill="#99ff99"/><g id="ProcessOnG1033" transform="matrix(1.0,0.0,0.0,1.0,10.0,10.416666666666668)"><text id="ProcessOnText1034" fill="#ffffff" font-size="22" x="18.0" y="22.55" font-family="微软雅黑" font-weight="normal" font-style="normal" text-decoration="none" family="微软雅黑" text-anchor="middle" size="22">06</text></g></g><g id="ProcessOnG1035" transform="matrix(1.0,0.0,0.0,1.0,134.0,370.0)" opacity="1.0"><path id="ProcessOnPath1036" d="M29.820000000000004 0.0L214.00102966308594 0.0L243.82102966308594 71.00000000000001L214.00102966308594 142.00000000000003L29.820000000000004 142.00000000000003L0.0 71.00000000000001L29.820000000000004 0.0Z" stroke="#323232" stroke-width="2.0" stroke-dasharray="none" opacity="1.0" fill="#ffffff"/></g><g id="ProcessOnG1037" transform="matrix(1.0,0.0,0.0,1.0,175.96919363053118,402.6217925873129)" opacity="1.0"><path id="ProcessOnPath1038" d="M0.0 0.0L159.88264240202355 0.0L159.88264240202355 48.328581610833936L0.0 48.328581610833936Z" stroke="none" stroke-width="0.0" stroke-dasharray="none" opacity="1.0" fill="none"/><g id="ProcessOnG1039" transform="matrix(1.0,0.0,0.0,1.0,0.0,16.664290805416968)"><text id="ProcessOnText1040" fill="#994c00" font-size="12" x="78.94132120101177" y="12.3" font-family="微软雅黑" font-weight="normal" font-style="normal" text-decoration="none" family="微软雅黑" text-anchor="middle" size="12">第一阶段</text></g></g><g id="ProcessOnG1041"><path id="ProcessOnPath1042" d="M162.97872893536675 406.24643620812543L254.91124831653028 406.24643620812543L254.91124831653028 406.24643620812543L346.8437676976938 406.24643620812543" stroke="#a1a1a1" stroke-width="3.0" stroke-dasharray="none" fill="none"/></g><g id="ProcessOnG1043"><path id="ProcessOnPath1044" d="M191.95745787073355 379.66571632216676L191.95745787073355 389.3314326443335L191.95745787073355 389.3314326443335L191.95745787073355 398.99714896650033" stroke="#a1a1a1" stroke-width="4.0" stroke-dasharray="none" fill="none" marker-start="url(#ProcessOnMarker1045)"/></g><g id="ProcessOnG1047" transform="matrix(1.0,0.0,0.0,1.0,169.473961282949,432.8271560940841)" opacity="1.0"><path id="ProcessOnPath1048" d="M0.0 0.0L177.3698064147449 0.0L177.3698064147449 45.91215253029223L0.0 45.91215253029223Z" stroke="none" stroke-width="0.0" stroke-dasharray="none" opacity="1.0" fill="none"/><g id="ProcessOnG1049" transform="matrix(1.0,0.0,0.0,1.0,0.0,-7.043923734853884)"><text id="ProcessOnText1050" fill="#000000" font-size="12" x="0.0" y="12.3" font-family="微软雅黑" font-weight="normal" font-style="normal" text-decoration="none" family="微软雅黑" text-anchor="start" size="12"></text><text id="ProcessOnText1051" fill="#000000" font-size="12" x="0.0" y="27.3" font-family="微软雅黑" font-weight="normal" font-style="normal" text-decoration="none" family="微软雅黑" text-anchor="start" size="12">1.WIFI插座整体架构规划</text><text id="ProcessOnText1052" fill="#000000" font-size="12" x="0.0" y="42.3" font-family="微软雅黑" font-weight="normal" font-style="normal" text-decoration="none" family="微软雅黑" text-anchor="start" size="12">2.项目任务分工派发</text><text id="ProcessOnText1053" fill="#000000" font-size="12" x="0.0" y="57.3" font-family="微软雅黑" font-weight="normal" font-style="normal" text-decoration="none" family="微软雅黑" text-anchor="start" size="12"></text></g></g><g id="ProcessOnG1054" transform="matrix(1.0,0.0,0.0,1.0,134.0,463.6714183891661)" opacity="1.0"><path id="ProcessOnPath1055" d="M0.0 0.0L159.88264240202355 0.0L159.88264240202355 48.328581610833936L0.0 48.328581610833936Z" stroke="none" stroke-width="0.0" stroke-dasharray="none" opacity="1.0" fill="none"/><g id="ProcessOnG1056" transform="matrix(1.0,0.0,0.0,1.0,0.0,16.664290805416968)"><text id="ProcessOnText1057" fill="#994c00" font-size="12" x="78.94132120101177" y="12.3" font-family="微软雅黑" font-weight="normal" font-style="normal" text-decoration="none" family="微软雅黑" text-anchor="middle" size="12">（2018.07.28）</text></g></g><g id="ProcessOnG1058" transform="matrix(1.0,0.0,0.0,1.0,167.172131147541,140.719413867021)" opacity="1.0"><path id="ProcessOnPath1059" d="M30.459446648135007 0.0L223.368422204324 0.0L253.827868852459 72.52249201936907L223.368422204324 145.04498403873814L30.459446648135007 145.04498403873814L0.0 72.52249201936907L30.459446648135007 0.0Z" stroke="#323232" stroke-width="2.0" stroke-dasharray="none" opacity="1.0" fill="#ffffff"/></g><g id="ProcessOnG1060" transform="matrix(1.0,0.0,0.0,1.0,207.74297903789306,137.01704502105713)" opacity="1.0"><path id="ProcessOnPath1061" d="M0.0 0.0L166.44450416554687 0.0L166.44450416554687 49.364917946184946L0.0 49.364917946184946Z" stroke="none" stroke-width="0.0" stroke-dasharray="none" opacity="1.0" fill="none"/><g id="ProcessOnG1062" transform="matrix(1.0,0.0,0.0,1.0,0.0,17.182458973092473)"><text id="ProcessOnText1063" fill="#994c00" font-size="12" x="82.22225208277344" y="12.3" font-family="微软雅黑" font-weight="normal" font-style="normal" text-decoration="none" family="微软雅黑" text-anchor="middle" size="12">第二阶段</text></g></g><g id="ProcessOnG1064"><path id="ProcessOnPath1065" d="M198.38047567858104 249.3222333486279L294.0860655737705 249.3222333486279L294.0860655737705 249.3222333486279L389.79165546895996 249.3222333486279" stroke="#a1a1a1" stroke-width="3.0" stroke-dasharray="none" fill="none"/></g><g id="ProcessOnG1066" transform="matrix(1.0,0.0,0.0,1.0,201.7613796694437,175.27485642935045)" opacity="1.0"><path id="ProcessOnPath1067" d="M0.0 0.0L184.64937180865357 0.0L184.64937180865357 46.8966720488757L0.0 46.8966720488757Z" stroke="none" stroke-width="0.0" stroke-dasharray="none" opacity="1.0" fill="none"/><g id="ProcessOnG1068" transform="matrix(1.0,0.0,0.0,1.0,0.0,0.9483360244378503)"><text id="ProcessOnText1069" fill="#000000" font-size="12" x="0.0" y="12.3" font-family="微软雅黑" font-weight="normal" font-style="normal" text-decoration="none" family="微软雅黑" text-anchor="start" size="12">1.硬件人员完成相关的芯片选型</text><text id="ProcessOnText1070" fill="#000000" font-size="12" x="0.0" y="27.3" font-family="微软雅黑" font-weight="normal" font-style="normal" text-decoration="none" family="微软雅黑" text-anchor="start" size="12">2.结构与硬件布局配合完成</text><text id="ProcessOnText1071" fill="#000000" font-size="12" x="0.0" y="42.3" font-family="微软雅黑" font-weight="normal" font-style="normal" text-decoration="none" family="微软雅黑" text-anchor="start" size="12">3.硬件Layout On going....</text></g></g><g id="ProcessOnG1072" transform="matrix(1.0,0.0,0.0,1.0,167.172131147541,206.78052919186325)" opacity="1.0"><path id="ProcessOnPath1073" d="M0.0 0.0L166.44450416554687 0.0L166.44450416554687 49.364917946184946L0.0 49.364917946184946Z" stroke="none" stroke-width="0.0" stroke-dasharray="none" opacity="1.0" fill="none"/><g id="ProcessOnG1074" transform="matrix(1.0,0.0,0.0,1.0,0.0,9.682458973092473)"><text id="ProcessOnText1075" fill="#994c00" font-size="12" x="82.22225208277344" y="12.3" font-family="微软雅黑" font-weight="normal" font-style="normal" text-decoration="none" family="微软雅黑" text-anchor="middle" size="12">     </text><text id="ProcessOnText1076" fill="#994c00" font-size="12" x="82.22225208277344" y="27.3" font-family="微软雅黑" font-weight="normal" font-style="normal" text-decoration="none" family="微软雅黑" text-anchor="middle" size="12">       （2018.07.29 - 08.10）</text></g></g><g id="ProcessOnG1077"><path id="ProcessOnPath1078" d="M380.42915210964793 275.23881527037497L380.42915210964793 266.9686202055095L380.42915210964793 266.9686202055095L380.42915210964793 258.6984251406441" stroke="#a1a1a1" stroke-width="4.0" stroke-dasharray="none" fill="none" marker-start="url(#ProcessOnMarker1079)"/></g><g id="ProcessOnG1081" transform="matrix(1.0,0.0,0.0,1.0,472.0,370.0)" opacity="1.0"><path id="ProcessOnPath1082" d="M42.003580856323254 0.0L247.99927253723143 0.0L290.0028533935547 100.0085258483887L247.99927253723143 200.0170516967774L42.003580856323254 200.0170516967774L0.0 100.0085258483887L42.003580856323254 0.0Z" stroke="#323232" stroke-width="2.0" stroke-dasharray="none" opacity="1.0" fill="#ffffff"/></g><g id="ProcessOnG1083" transform="matrix(1.0,0.0,0.0,1.0,521.9185239447922,415.95010404491626)" opacity="1.0"><path id="ProcessOnPath1084" d="M0.0 0.0L190.16580550397026 0.0L190.16580550397026 68.0742282146908L0.0 68.0742282146908Z" stroke="none" stroke-width="0.0" stroke-dasharray="none" opacity="1.0" fill="none"/><g id="ProcessOnG1085" transform="matrix(1.0,0.0,0.0,1.0,0.0,19.037114107345403)"><text id="ProcessOnText1086" fill="#994c00" font-size="12" x="94.08290275198513" y="12.3" font-family="微软雅黑" font-weight="normal" font-style="normal" text-decoration="none" family="微软雅黑" text-anchor="middle" size="12">第三阶段</text><text id="ProcessOnText1087" fill="#994c00" font-size="12" x="94.08290275198513" y="27.3" font-family="微软雅黑" font-weight="normal" font-style="normal" text-decoration="none" family="微软雅黑" text-anchor="middle" size="12"></text></g></g><g id="ProcessOnG1088"><path id="ProcessOnPath1089" d="M506.46755224759454 421.0556711610181L615.8128904123774 421.0556711610181L615.8128904123774 421.0556711610181L725.1582285771603 421.0556711610181" stroke="#a1a1a1" stroke-width="3.0" stroke-dasharray="none" fill="none"/></g><g id="ProcessOnG1090"><path id="ProcessOnPath1091" d="M540.9351044951892 383.6148456429381L540.9351044951892 397.22969128587624L540.9351044951892 397.22969128587624L540.9351044951892 410.8445369288144" stroke="#a1a1a1" stroke-width="4.0" stroke-dasharray="none" fill="none" marker-start="url(#ProcessOnMarker1092)"/></g><g id="ProcessOnG1094" transform="matrix(1.0,0.0,0.0,1.0,514.1930380961934,458.496496679098)" opacity="1.0"><path id="ProcessOnPath1095" d="M0.0 0.0L210.965190480967 0.0L210.965190480967 64.67051680395626L0.0 64.67051680395626Z" stroke="none" stroke-width="0.0" stroke-dasharray="none" opacity="1.0" fill="none"/><g id="ProcessOnG1096" transform="matrix(1.0,0.0,0.0,1.0,0.0,-20.16474159802187)"><text id="ProcessOnText1097" fill="#000000" font-size="12" x="0.0" y="12.3" font-family="微软雅黑" font-weight="normal" font-style="normal" text-decoration="none" family="微软雅黑" text-anchor="start" size="12"></text><text id="ProcessOnText1098" fill="#000000" font-size="12" x="0.0" y="27.3" font-family="微软雅黑" font-weight="normal" font-style="normal" text-decoration="none" family="微软雅黑" text-anchor="start" size="12">1.WIFI插座PCB Layout已经完成</text><text id="ProcessOnText1099" fill="#000000" font-size="12" x="0.0" y="42.3" font-family="微软雅黑" font-weight="normal" font-style="normal" text-decoration="none" family="微软雅黑" text-anchor="start" size="12">2.3D打印模具,查看PCB Layout与模具</text><text id="ProcessOnText1100" fill="#000000" font-size="12" x="0.0" y="57.3" font-family="微软雅黑" font-weight="normal" font-style="normal" text-decoration="none" family="微软雅黑" text-anchor="start" size="12">的匹配度,以便PCB Layout微调</text><text id="ProcessOnText1101" fill="#000000" font-size="12" x="0.0" y="72.3" font-family="微软雅黑" font-weight="normal" font-style="normal" text-decoration="none" family="微软雅黑" text-anchor="start" size="12">3.软件已经完成跟贝壳物联对接,现在可</text><text id="ProcessOnText1102" fill="#000000" font-size="12" x="0.0" y="87.3" font-family="微软雅黑" font-weight="normal" font-style="normal" text-decoration="none" family="微软雅黑" text-anchor="start" size="12">以通过天猫精灵语音控制ESP32</text><text id="ProcessOnText1103" fill="#000000" font-size="12" x="0.0" y="102.3" font-family="微软雅黑" font-weight="normal" font-style="normal" text-decoration="none" family="微软雅黑" text-anchor="start" size="12"></text></g></g><g id="ProcessOnG1104" transform="matrix(1.0,0.0,0.0,1.0,472.0,501.94282348208657)" opacity="1.0"><path id="ProcessOnPath1105" d="M0.0 0.0L190.16580550397026 0.0L190.16580550397026 68.0742282146908L0.0 68.0742282146908Z" stroke="none" stroke-width="0.0" stroke-dasharray="none" opacity="1.0" fill="none"/><g id="ProcessOnG1106" transform="matrix(1.0,0.0,0.0,1.0,0.0,26.537114107345403)"><text id="ProcessOnText1107" fill="#994c00" font-size="12" x="94.08290275198513" y="12.3" font-family="微软雅黑" font-weight="normal" font-style="normal" text-decoration="none" family="微软雅黑" text-anchor="middle" size="12">  （2018.08.10 - 08.15）</text></g></g></g></g></svg>