<svg xmlns="http://www.w3.org/2000/svg" xmlns:xlink="http://www.w3.org/1999/xlink" id="processonSvg1000" viewBox="55.366485595703125 124.01705169677734 1106.3636474609375 642.0" width="1106.3636474609375" height="642.0"><defs id="ProcessOnDefs1001"><marker id="ProcessOnMarker1055" markerUnits="userSpaceOnUse" orient="auto" markerWidth="16.23606797749979" markerHeight="10.550836550532098" viewBox="-1.0 -1.3763819204711736 16.23606797749979 10.550836550532098" refX="-1.0" refY="3.8990363547948754"><path id="ProcessOnPath1056" d="M12.0 3.8990363547948754L0.0 7.798072709589751V0.0Z" stroke="#323232" stroke-width="2.0" fill="#323232" transform="matrix(1.0,0.0,0.0,1.0,0.0,0.0)"/></marker><marker id="ProcessOnMarker1059" markerUnits="userSpaceOnUse" orient="auto" markerWidth="16.23606797749979" markerHeight="10.550836550532098" viewBox="-1.0 -1.3763819204711736 16.23606797749979 10.550836550532098" refX="-1.0" refY="3.8990363547948754"><path id="ProcessOnPath1060" d="M12.0 3.8990363547948754L0.0 7.798072709589751V0.0Z" stroke="#323232" stroke-width="2.0" fill="#323232" transform="matrix(1.0,0.0,0.0,1.0,0.0,0.0)"/></marker><marker id="ProcessOnMarker1070" markerUnits="userSpaceOnUse" orient="auto" markerWidth="16.23606797749979" markerHeight="10.550836550532098" viewBox="-1.0 -1.3763819204711736 16.23606797749979 10.550836550532098" refX="-1.0" refY="3.8990363547948754"><path id="ProcessOnPath1071" d="M12.0 3.8990363547948754L0.0 7.798072709589751V0.0Z" stroke="#323232" stroke-width="2.0" fill="#323232" transform="matrix(1.0,0.0,0.0,1.0,0.0,0.0)"/></marker><marker id="ProcessOnMarker1117" markerUnits="userSpaceOnUse" orient="auto" markerWidth="16.23606797749979" markerHeight="10.550836550532098" viewBox="-1.0 -1.3763819204711736 16.23606797749979 10.550836550532098" refX="-1.0" refY="3.8990363547948754"><path id="ProcessOnPath1118" d="M12.0 3.8990363547948754L0.0 7.798072709589751V0.0Z" stroke="#323232" stroke-width="2.0" fill="#323232" transform="matrix(1.0,0.0,0.0,1.0,0.0,0.0)"/></marker><marker id="ProcessOnMarker1135" markerUnits="userSpaceOnUse" orient="auto" markerWidth="16.23606797749979" markerHeight="10.550836550532098" viewBox="-1.0 -1.3763819204711736 16.23606797749979 10.550836550532098" refX="-1.0" refY="3.8990363547948754"><path id="ProcessOnPath1136" d="M12.0 3.8990363547948754L0.0 7.798072709589751V0.0Z" stroke="#323232" stroke-width="2.0" fill="#323232" transform="matrix(1.0,0.0,0.0,1.0,0.0,0.0)"/></marker></defs><g id="ProcessOnG1002"><path id="ProcessOnPath1003" d="M55.366485595703125 124.01705169677734H1161.7301330566406V766.0170516967773H55.366485595703125V124.01705169677734Z" fill="none"/><g id="ProcessOnG1004"><g id="ProcessOnG1005" transform="matrix(1.0,0.0,0.0,1.0,846.0028533935547,144.01705169677734)" opacity="1.0"><path id="ProcessOnPath1006" d="M0.0 0.0L266.0 0.0L266.0 110.0L0.0 110.0Z" stroke="none" stroke-width="0.0" stroke-dasharray="none" opacity="1.0" fill="#ffffff"/><path id="ProcessOnPath1007" d="M0.0 0.0L266.0 0.0L266.0 55.5L0.0 55.5Z" stroke="none" stroke-width="0.0" stroke-dasharray="none" opacity="1.0" fill="#dadada"/><path id="ProcessOnPath1008" d="M0.0 55.5L266.0 55.5" stroke="#8a8a8a" stroke-width="1.0" stroke-dasharray="none" opacity="1.0" fill="none"/><path id="ProcessOnPath1009" d="M0.0 0.0L266.0 0.0L266.0 110.0L0.0 110.0Z" stroke="#8a8a8a" stroke-width="2.0" stroke-dasharray="none" opacity="1.0" fill="none"/><g id="ProcessOnG1010" transform="matrix(1.0,0.0,0.0,1.0,5.0,18.75)"><text id="ProcessOnText1011" fill="#000000" font-size="14" x="127.0" y="14.350000000000001" font-family="微软雅黑" font-weight="normal" font-style="normal" text-decoration="none" family="微软雅黑" text-anchor="middle" size="14">p_head_node</text></g><g id="ProcessOnG1012" transform="matrix(1.0,0.0,0.0,1.0,5.0,73.75)"><text id="ProcessOnText1013" fill="#000000" font-size="14" x="127.0" y="14.350000000000001" font-family="微软雅黑" font-weight="normal" font-style="normal" text-decoration="none" family="微软雅黑" text-anchor="middle" size="14">p_next</text></g></g><g id="ProcessOnG1014" transform="matrix(1.0,0.0,0.0,1.0,846.0028533935547,298.01705169677734)" opacity="1.0"><path id="ProcessOnPath1015" d="M0.0 0.0L266.0 0.0L266.0 110.0L0.0 110.0Z" stroke="none" stroke-width="0.0" stroke-dasharray="none" opacity="1.0" fill="#ffffff"/><path id="ProcessOnPath1016" d="M0.0 0.0L266.0 0.0L266.0 37.166666666666664L0.0 37.166666666666664Z" stroke="none" stroke-width="0.0" stroke-dasharray="none" opacity="1.0" fill="#dadada"/><path id="ProcessOnPath1017" d="M0.0 37.5L266.0 37.5M0.0 73.5L266.0 73.5" stroke="#8a8a8a" stroke-width="1.0" stroke-dasharray="none" opacity="1.0" fill="none"/><path id="ProcessOnPath1018" d="M0.0 0.0L266.0 0.0L266.0 110.0L0.0 110.0Z" stroke="#8a8a8a" stroke-width="2.0" stroke-dasharray="none" opacity="1.0" fill="none"/><g id="ProcessOnG1019" transform="matrix(1.0,0.0,0.0,1.0,5.0,9.583333333333332)"><text id="ProcessOnText1020" fill="#000000" font-size="14" x="127.0" y="14.350000000000001" font-family="微软雅黑" font-weight="normal" font-style="normal" text-decoration="none" family="微软雅黑" text-anchor="middle" size="14">node1</text></g><g id="ProcessOnG1021" transform="matrix(1.0,0.0,0.0,1.0,5.0,46.25)"><text id="ProcessOnText1022" fill="#000000" font-size="14" x="127.0" y="14.350000000000001" font-family="微软雅黑" font-weight="normal" font-style="normal" text-decoration="none" family="微软雅黑" text-anchor="middle" size="14">next_data</text></g><g id="ProcessOnG1023" transform="matrix(1.0,0.0,0.0,1.0,5.0,82.91666666666666)"><text id="ProcessOnText1024" fill="#000000" font-size="14" x="127.0" y="14.350000000000001" font-family="微软雅黑" font-weight="normal" font-style="normal" text-decoration="none" family="微软雅黑" text-anchor="middle" size="14">data</text></g></g><g id="ProcessOnG1025" transform="matrix(1.0,0.0,0.0,1.0,846.0028533935547,470.01705169677734)" opacity="1.0"><path id="ProcessOnPath1026" d="M0.0 0.0L266.0 0.0L266.0 110.0L0.0 110.0Z" stroke="none" stroke-width="0.0" stroke-dasharray="none" opacity="1.0" fill="#ffffff"/><path id="ProcessOnPath1027" d="M0.0 0.0L266.0 0.0L266.0 37.166666666666664L0.0 37.166666666666664Z" stroke="none" stroke-width="0.0" stroke-dasharray="none" opacity="1.0" fill="#dadada"/><path id="ProcessOnPath1028" d="M0.0 37.5L266.0 37.5M0.0 73.5L266.0 73.5" stroke="#8a8a8a" stroke-width="1.0" stroke-dasharray="none" opacity="1.0" fill="none"/><path id="ProcessOnPath1029" d="M0.0 0.0L266.0 0.0L266.0 110.0L0.0 110.0Z" stroke="#8a8a8a" stroke-width="2.0" stroke-dasharray="none" opacity="1.0" fill="none"/><g id="ProcessOnG1030" transform="matrix(1.0,0.0,0.0,1.0,5.0,9.583333333333332)"><text id="ProcessOnText1031" fill="#000000" font-size="14" x="127.0" y="14.350000000000001" font-family="微软雅黑" font-weight="normal" font-style="normal" text-decoration="none" family="微软雅黑" text-anchor="middle" size="14">node2</text></g><g id="ProcessOnG1032" transform="matrix(1.0,0.0,0.0,1.0,5.0,46.25)"><text id="ProcessOnText1033" fill="#000000" font-size="14" x="127.0" y="14.350000000000001" font-family="微软雅黑" font-weight="normal" font-style="normal" text-decoration="none" family="微软雅黑" text-anchor="middle" size="14">next_data</text></g><g id="ProcessOnG1034" transform="matrix(1.0,0.0,0.0,1.0,5.0,82.91666666666666)"><text id="ProcessOnText1035" fill="#000000" font-size="14" x="127.0" y="14.350000000000001" font-family="微软雅黑" font-weight="normal" font-style="normal" text-decoration="none" family="微软雅黑" text-anchor="middle" size="14">data</text></g></g><g id="ProcessOnG1036" transform="matrix(1.0,0.0,0.0,1.0,803.7301330566406,168.51705169677734)" opacity="1.0"><path id="ProcessOnPath1037" d="M0.0 0.0L23.0 0.0L23.0 61.0L0.0 61.0Z" stroke="none" stroke-width="0.0" stroke-dasharray="none" opacity="1.0" fill="none"/><g id="ProcessOnG1038" transform="matrix(1.0,0.0,0.0,1.0,0.0,14.25)"><text id="ProcessOnText1039" fill="#000000" font-size="13" x="10.5" y="13.325" font-family="微软雅黑" font-weight="normal" font-style="normal" text-decoration="none" family="微软雅黑" text-anchor="middle" size="13">表</text><text id="ProcessOnText1040" fill="#000000" font-size="13" x="10.5" y="29.575" font-family="微软雅黑" font-weight="normal" font-style="normal" text-decoration="none" family="微软雅黑" text-anchor="middle" size="13">头</text></g></g><g id="ProcessOnG1041" transform="matrix(1.0,0.0,0.0,1.0,803.7301330566406,322.51705169677734)" opacity="1.0"><path id="ProcessOnPath1042" d="M0.0 0.0L23.0 0.0L23.0 61.0L0.0 61.0Z" stroke="none" stroke-width="0.0" stroke-dasharray="none" opacity="1.0" fill="none"/><g id="ProcessOnG1043" transform="matrix(1.0,0.0,0.0,1.0,0.0,6.125)"><text id="ProcessOnText1044" fill="#000000" font-size="13" x="10.5" y="13.325" font-family="微软雅黑" font-weight="normal" font-style="normal" text-decoration="none" family="微软雅黑" text-anchor="middle" size="13">节</text><text id="ProcessOnText1045" fill="#000000" font-size="13" x="10.5" y="29.575" font-family="微软雅黑" font-weight="normal" font-style="normal" text-decoration="none" family="微软雅黑" text-anchor="middle" size="13">点</text><text id="ProcessOnText1046" fill="#000000" font-size="13" x="10.5" y="45.825" font-family="微软雅黑" font-weight="normal" font-style="normal" text-decoration="none" family="微软雅黑" text-anchor="middle" size="13">1</text></g></g><g id="ProcessOnG1047" transform="matrix(1.0,0.0,0.0,1.0,803.7301330566406,494.51705169677734)" opacity="1.0"><path id="ProcessOnPath1048" d="M0.0 0.0L23.0 0.0L23.0 61.0L0.0 61.0Z" stroke="none" stroke-width="0.0" stroke-dasharray="none" opacity="1.0" fill="none"/><g id="ProcessOnG1049" transform="matrix(1.0,0.0,0.0,1.0,0.0,6.125)"><text id="ProcessOnText1050" fill="#000000" font-size="13" x="10.5" y="13.325" font-family="微软雅黑" font-weight="normal" font-style="normal" text-decoration="none" family="微软雅黑" text-anchor="middle" size="13">节</text><text id="ProcessOnText1051" fill="#000000" font-size="13" x="10.5" y="29.575" font-family="微软雅黑" font-weight="normal" font-style="normal" text-decoration="none" family="微软雅黑" text-anchor="middle" size="13">点</text><text id="ProcessOnText1052" fill="#000000" font-size="13" x="10.5" y="45.825" font-family="微软雅黑" font-weight="normal" font-style="normal" text-decoration="none" family="微软雅黑" text-anchor="middle" size="13">2</text></g></g><g id="ProcessOnG1053"><path id="ProcessOnPath1054" d="M1111.7301330566406 228.92613792419434L1141.7301330566406 228.92613792419434L1141.7301330566406 345.92613792419434L1126.9662010341403 345.92613792419434" stroke="#323232" stroke-width="2.0" stroke-dasharray="none" fill="none" marker-end="url(#ProcessOnMarker1055)"/></g><g id="ProcessOnG1057"><path id="ProcessOnPath1058" d="M1111.7301330566406 358.92613792419434L1141.7301330566406 358.92613792419434L1141.7301330566406 516.9261379241943L1126.9662010341403 516.9261379241943" stroke="#323232" stroke-width="2.0" stroke-dasharray="none" fill="none" marker-end="url(#ProcessOnMarker1059)"/></g><g id="ProcessOnG1061" transform="matrix(1.0,0.0,0.0,1.0,846.0028533935547,636.0170516967773)" opacity="1.0"><path id="ProcessOnPath1062" d="M0.0 0.0L266.0 0.0L266.0 110.0L0.0 110.0Z" stroke="none" stroke-width="0.0" stroke-dasharray="none" opacity="1.0" fill="#ffffff"/><path id="ProcessOnPath1063" d="M0.0 0.0L266.0 0.0L266.0 110.5L0.0 110.5Z" stroke="none" stroke-width="0.0" stroke-dasharray="none" opacity="1.0" fill="#dadada"/><path id="ProcessOnPath1064" d="M0 0" stroke="#8a8a8a" stroke-width="1.0" stroke-dasharray="none" opacity="1.0" fill="none"/><path id="ProcessOnPath1065" d="M0.0 0.0L266.0 0.0L266.0 110.0L0.0 110.0Z" stroke="#8a8a8a" stroke-width="2.0" stroke-dasharray="none" opacity="1.0" fill="none"/><g id="ProcessOnG1066" transform="matrix(1.0,0.0,0.0,1.0,5.0,46.25)"><text id="ProcessOnText1067" fill="#000000" font-size="14" x="127.0" y="14.350000000000001" font-family="微软雅黑" font-weight="normal" font-style="normal" text-decoration="none" family="微软雅黑" text-anchor="middle" size="14">NULL</text></g></g><g id="ProcessOnG1068"><path id="ProcessOnPath1069" d="M1111.7301330566406 531.7443084716797L1141.7301330566406 531.7443084716797L1141.7301330566406 693.7443084716797L1126.9662010341403 693.7443084716797" stroke="#323232" stroke-width="2.0" stroke-dasharray="none" fill="none" marker-end="url(#ProcessOnMarker1070)"/></g><g id="ProcessOnG1072" transform="matrix(1.0,0.0,0.0,1.0,175.0028533935547,149.01705169677734)" opacity="1.0"><path id="ProcessOnPath1073" d="M0.0 0.0L266.0 0.0L266.0 110.0L0.0 110.0Z" stroke="none" stroke-width="0.0" stroke-dasharray="none" opacity="1.0" fill="#ffffff"/><path id="ProcessOnPath1074" d="M0.0 0.0L266.0 0.0L266.0 55.5L0.0 55.5Z" stroke="none" stroke-width="0.0" stroke-dasharray="none" opacity="1.0" fill="#dadada"/><path id="ProcessOnPath1075" d="M0.0 55.5L266.0 55.5" stroke="#8a8a8a" stroke-width="1.0" stroke-dasharray="none" opacity="1.0" fill="none"/><path id="ProcessOnPath1076" d="M0.0 0.0L266.0 0.0L266.0 110.0L0.0 110.0Z" stroke="#8a8a8a" stroke-width="2.0" stroke-dasharray="none" opacity="1.0" fill="none"/><g id="ProcessOnG1077" transform="matrix(1.0,0.0,0.0,1.0,5.0,18.75)"><text id="ProcessOnText1078" fill="#000000" font-size="14" x="127.0" y="14.350000000000001" font-family="微软雅黑" font-weight="normal" font-style="normal" text-decoration="none" family="微软雅黑" text-anchor="middle" size="14">0x22fe40</text></g><g id="ProcessOnG1079" transform="matrix(1.0,0.0,0.0,1.0,5.0,73.75)"><text id="ProcessOnText1080" fill="#000000" font-size="14" x="127.0" y="14.350000000000001" font-family="微软雅黑" font-weight="normal" font-style="normal" text-decoration="none" family="微软雅黑" text-anchor="middle" size="14">0x22fe30</text></g></g><g id="ProcessOnG1081" transform="matrix(1.0,0.0,0.0,1.0,175.0028533935547,303.01705169677734)" opacity="1.0"><path id="ProcessOnPath1082" d="M0.0 0.0L266.0 0.0L266.0 110.0L0.0 110.0Z" stroke="none" stroke-width="0.0" stroke-dasharray="none" opacity="1.0" fill="#ffffff"/><path id="ProcessOnPath1083" d="M0.0 0.0L266.0 0.0L266.0 37.166666666666664L0.0 37.166666666666664Z" stroke="none" stroke-width="0.0" stroke-dasharray="none" opacity="1.0" fill="#dadada"/><path id="ProcessOnPath1084" d="M0.0 37.5L266.0 37.5M0.0 73.5L266.0 73.5" stroke="#8a8a8a" stroke-width="1.0" stroke-dasharray="none" opacity="1.0" fill="none"/><path id="ProcessOnPath1085" d="M0.0 0.0L266.0 0.0L266.0 110.0L0.0 110.0Z" stroke="#8a8a8a" stroke-width="2.0" stroke-dasharray="none" opacity="1.0" fill="none"/><g id="ProcessOnG1086" transform="matrix(1.0,0.0,0.0,1.0,5.0,9.583333333333332)"><text id="ProcessOnText1087" fill="#000000" font-size="14" x="127.0" y="14.350000000000001" font-family="微软雅黑" font-weight="normal" font-style="normal" text-decoration="none" family="微软雅黑" text-anchor="middle" size="14">0x22fe30</text></g><g id="ProcessOnG1088" transform="matrix(1.0,0.0,0.0,1.0,5.0,46.25)"><text id="ProcessOnText1089" fill="#000000" font-size="14" x="127.0" y="14.350000000000001" font-family="微软雅黑" font-weight="normal" font-style="normal" text-decoration="none" family="微软雅黑" text-anchor="middle" size="14">0x22fe30</text></g><g id="ProcessOnG1090" transform="matrix(1.0,0.0,0.0,1.0,5.0,82.91666666666666)"><text id="ProcessOnText1091" fill="#000000" font-size="14" x="127.0" y="14.350000000000001" font-family="微软雅黑" font-weight="normal" font-style="normal" text-decoration="none" family="微软雅黑" text-anchor="middle" size="14">0x01</text></g></g><g id="ProcessOnG1092" transform="matrix(1.0,0.0,0.0,1.0,175.0028533935547,475.01705169677734)" opacity="1.0"><path id="ProcessOnPath1093" d="M0.0 0.0L266.0 0.0L266.0 110.0L0.0 110.0Z" stroke="none" stroke-width="0.0" stroke-dasharray="none" opacity="1.0" fill="#ffffff"/><path id="ProcessOnPath1094" d="M0.0 0.0L266.0 0.0L266.0 37.166666666666664L0.0 37.166666666666664Z" stroke="none" stroke-width="0.0" stroke-dasharray="none" opacity="1.0" fill="#dadada"/><path id="ProcessOnPath1095" d="M0.0 37.5L266.0 37.5M0.0 73.5L266.0 73.5" stroke="#8a8a8a" stroke-width="1.0" stroke-dasharray="none" opacity="1.0" fill="none"/><path id="ProcessOnPath1096" d="M0.0 0.0L266.0 0.0L266.0 110.0L0.0 110.0Z" stroke="#8a8a8a" stroke-width="2.0" stroke-dasharray="none" opacity="1.0" fill="none"/><g id="ProcessOnG1097" transform="matrix(1.0,0.0,0.0,1.0,5.0,9.583333333333332)"><text id="ProcessOnText1098" fill="#000000" font-size="14" x="127.0" y="14.350000000000001" font-family="微软雅黑" font-weight="normal" font-style="normal" text-decoration="none" family="微软雅黑" text-anchor="middle" size="14">0x22fe20</text></g><g id="ProcessOnG1099" transform="matrix(1.0,0.0,0.0,1.0,5.0,46.25)"><text id="ProcessOnText1100" fill="#000000" font-size="14" x="127.0" y="14.350000000000001" font-family="微软雅黑" font-weight="normal" font-style="normal" text-decoration="none" family="微软雅黑" text-anchor="middle" size="14">0x22fe20</text></g><g id="ProcessOnG1101" transform="matrix(1.0,0.0,0.0,1.0,5.0,82.91666666666666)"><text id="ProcessOnText1102" fill="#000000" font-size="14" x="127.0" y="14.350000000000001" font-family="微软雅黑" font-weight="normal" font-style="normal" text-decoration="none" family="微软雅黑" text-anchor="middle" size="14">0x02</text></g></g><g id="ProcessOnG1103" transform="matrix(1.0,0.0,0.0,1.0,75.36648559570312,149.01705169677734)" opacity="1.0"><path id="ProcessOnPath1104" d="M0.0 0.0L58.0 0.0L58.0 20.0L0.0 20.0Z" stroke="none" stroke-width="0.0" stroke-dasharray="none" opacity="1.0" fill="none"/><g id="ProcessOnG1105" transform="matrix(1.0,0.0,0.0,1.0,0.0,1.875)"><text id="ProcessOnText1106" fill="#000000" font-size="13" x="0.0" y="13.325" font-family="微软雅黑" font-weight="normal" font-style="normal" text-decoration="none" family="微软雅黑" text-anchor="start" size="13">表头地址</text></g></g><g id="ProcessOnG1107" transform="matrix(1.0,0.0,0.0,1.0,75.36648559570312,194.01705169677734)" opacity="1.0"><path id="ProcessOnPath1108" d="M0.0 0.0L98.3636474609375 0.0L98.3636474609375 20.0L0.0 20.0Z" stroke="none" stroke-width="0.0" stroke-dasharray="none" opacity="1.0" fill="none"/><g id="ProcessOnG1109" transform="matrix(1.0,0.0,0.0,1.0,0.0,1.875)"><text id="ProcessOnText1110" fill="#000000" font-size="13" x="0.0" y="13.325" font-family="微软雅黑" font-weight="normal" font-style="normal" text-decoration="none" family="微软雅黑" text-anchor="start" size="13">表头存放的内容</text></g></g><g id="ProcessOnG1111" transform="matrix(1.0,0.0,0.0,1.0,75.36648559570312,303.01705169677734)" opacity="1.0"><path id="ProcessOnPath1112" d="M0.0 0.0L76.3636474609375 0.0L76.3636474609375 20.045459747314453L0.0 20.045459747314453Z" stroke="none" stroke-width="0.0" stroke-dasharray="none" opacity="1.0" fill="none"/><g id="ProcessOnG1113" transform="matrix(1.0,0.0,0.0,1.0,0.0,1.8977298736572266)"><text id="ProcessOnText1114" fill="#000000" font-size="13" x="0.0" y="13.325" font-family="微软雅黑" font-weight="normal" font-style="normal" text-decoration="none" family="微软雅黑" text-anchor="start" size="13">节点1地址</text></g></g><g id="ProcessOnG1115"><path id="ProcessOnPath1116" d="M441.0 359.0L463.0 359.0L463.0 359.0L469.7639320225002 359.0" stroke="#323232" stroke-width="2.0" stroke-dasharray="none" fill="none" marker-end="url(#ProcessOnMarker1117)"/></g><g id="ProcessOnG1119" transform="matrix(1.0,0.0,0.0,1.0,489.0028533935547,340.525577545166)" opacity="1.0"><path id="ProcessOnPath1120" d="M0.0 0.0L178.9971466064453 0.0L178.9971466064453 34.982948303222656L0.0 34.982948303222656Z" stroke="none" stroke-width="0.0" stroke-dasharray="none" opacity="1.0" fill="#ffffff"/><path id="ProcessOnPath1121" d="M0.0 0.0L178.9971466064453 0.0L178.9971466064453 35.482948303222656L0.0 35.482948303222656Z" stroke="none" stroke-width="0.0" stroke-dasharray="none" opacity="1.0" fill="#dadada"/><path id="ProcessOnPath1122" d="M0 0" stroke="#8a8a8a" stroke-width="1.0" stroke-dasharray="none" opacity="1.0" fill="none"/><path id="ProcessOnPath1123" d="M0.0 0.0L178.9971466064453 0.0L178.9971466064453 34.982948303222656L0.0 34.982948303222656Z" stroke="#8a8a8a" stroke-width="2.0" stroke-dasharray="none" opacity="1.0" fill="none"/><g id="ProcessOnG1124" transform="matrix(1.0,0.0,0.0,1.0,5.0,8.741474151611328)"><text id="ProcessOnText1125" fill="#000000" font-size="14" x="83.49857330322266" y="14.350000000000001" font-family="微软雅黑" font-weight="normal" font-style="normal" text-decoration="none" family="微软雅黑" text-anchor="middle" size="14">0x22fe20</text></g></g><g id="ProcessOnG1126" transform="matrix(1.0,0.0,0.0,1.0,489.0028533935547,512.525577545166)" opacity="1.0"><path id="ProcessOnPath1127" d="M0.0 0.0L178.9971466064453 0.0L178.9971466064453 34.982948303222656L0.0 34.982948303222656Z" stroke="none" stroke-width="0.0" stroke-dasharray="none" opacity="1.0" fill="#ffffff"/><path id="ProcessOnPath1128" d="M0.0 0.0L178.9971466064453 0.0L178.9971466064453 35.482948303222656L0.0 35.482948303222656Z" stroke="none" stroke-width="0.0" stroke-dasharray="none" opacity="1.0" fill="#dadada"/><path id="ProcessOnPath1129" d="M0 0" stroke="#8a8a8a" stroke-width="1.0" stroke-dasharray="none" opacity="1.0" fill="none"/><path id="ProcessOnPath1130" d="M0.0 0.0L178.9971466064453 0.0L178.9971466064453 34.982948303222656L0.0 34.982948303222656Z" stroke="#8a8a8a" stroke-width="2.0" stroke-dasharray="none" opacity="1.0" fill="none"/><g id="ProcessOnG1131" transform="matrix(1.0,0.0,0.0,1.0,5.0,8.741474151611328)"><text id="ProcessOnText1132" fill="#000000" font-size="14" x="83.49857330322266" y="14.350000000000001" font-family="微软雅黑" font-weight="normal" font-style="normal" text-decoration="none" family="微软雅黑" text-anchor="middle" size="14">NULL</text></g></g><g id="ProcessOnG1133"><path id="ProcessOnPath1134" d="M441.0 528.0L465.0 528.0L465.0 528.0L473.7639320225002 528.0" stroke="#323232" stroke-width="2.0" stroke-dasharray="none" fill="none" marker-end="url(#ProcessOnMarker1135)"/></g><g id="ProcessOnG1137" transform="matrix(1.0,0.0,0.0,1.0,75.36648559570312,340.525577545166)" opacity="1.0"><path id="ProcessOnPath1138" d="M0.0 0.0L76.3636474609375 0.0L76.3636474609375 20.045459747314453L0.0 20.045459747314453Z" stroke="none" stroke-width="0.0" stroke-dasharray="none" opacity="1.0" fill="none"/><g id="ProcessOnG1139" transform="matrix(1.0,0.0,0.0,1.0,0.0,-6.227270126342773)"><text id="ProcessOnText1140" fill="#000000" font-size="13" x="0.0" y="13.325" font-family="微软雅黑" font-weight="normal" font-style="normal" text-decoration="none" family="微软雅黑" text-anchor="start" size="13">节点1第一个</text><text id="ProcessOnText1141" fill="#000000" font-size="13" x="0.0" y="29.575" font-family="微软雅黑" font-weight="normal" font-style="normal" text-decoration="none" family="微软雅黑" text-anchor="start" size="13">变量的地址</text></g></g><g id="ProcessOnG1142" transform="matrix(1.0,0.0,0.0,1.0,498.16122817993164,315.7443218231201)" opacity="1.0"><path id="ProcessOnPath1143" d="M0.0 0.0L165.83877182006836 0.0L165.83877182006836 19.5L0.0 19.5Z" stroke="none" stroke-width="0.0" stroke-dasharray="none" opacity="1.0" fill="none"/><g id="ProcessOnG1144" transform="matrix(1.0,0.0,0.0,1.0,0.0,-6.5)"><text id="ProcessOnText1145" fill="#000000" font-size="13" x="0.0" y="13.325" font-family="微软雅黑" font-weight="normal" font-style="normal" text-decoration="none" family="微软雅黑" text-anchor="start" size="13">节点1第一个变量存放的内</text><text id="ProcessOnText1146" fill="#000000" font-size="13" x="0.0" y="29.575" font-family="微软雅黑" font-weight="normal" font-style="normal" text-decoration="none" family="微软雅黑" text-anchor="start" size="13">容</text></g></g><g id="ProcessOnG1147" transform="matrix(1.0,0.0,0.0,1.0,498.16122817993164,485.7443218231201)" opacity="1.0"><path id="ProcessOnPath1148" d="M0.0 0.0L165.83877182006836 0.0L165.83877182006836 19.5L0.0 19.5Z" stroke="none" stroke-width="0.0" stroke-dasharray="none" opacity="1.0" fill="none"/><g id="ProcessOnG1149" transform="matrix(1.0,0.0,0.0,1.0,0.0,-6.5)"><text id="ProcessOnText1150" fill="#000000" font-size="13" x="0.0" y="13.325" font-family="微软雅黑" font-weight="normal" font-style="normal" text-decoration="none" family="微软雅黑" text-anchor="start" size="13">节点2第一个变量存放的内</text><text id="ProcessOnText1151" fill="#000000" font-size="13" x="0.0" y="29.575" font-family="微软雅黑" font-weight="normal" font-style="normal" text-decoration="none" family="微软雅黑" text-anchor="start" size="13">容</text></g></g><g id="ProcessOnG1152" transform="matrix(1.0,0.0,0.0,1.0,75.36648559570312,475.01705169677734)" opacity="1.0"><path id="ProcessOnPath1153" d="M0.0 0.0L76.3636474609375 0.0L76.3636474609375 20.045459747314453L0.0 20.045459747314453Z" stroke="none" stroke-width="0.0" stroke-dasharray="none" opacity="1.0" fill="none"/><g id="ProcessOnG1154" transform="matrix(1.0,0.0,0.0,1.0,0.0,1.8977298736572266)"><text id="ProcessOnText1155" fill="#000000" font-size="13" x="0.0" y="13.325" font-family="微软雅黑" font-weight="normal" font-style="normal" text-decoration="none" family="微软雅黑" text-anchor="start" size="13">节点2地址</text></g></g><g id="ProcessOnG1156" transform="matrix(1.0,0.0,0.0,1.0,75.36648559570312,512.525577545166)" opacity="1.0"><path id="ProcessOnPath1157" d="M0.0 0.0L76.3636474609375 0.0L76.3636474609375 20.045459747314453L0.0 20.045459747314453Z" stroke="none" stroke-width="0.0" stroke-dasharray="none" opacity="1.0" fill="none"/><g id="ProcessOnG1158" transform="matrix(1.0,0.0,0.0,1.0,0.0,-6.227270126342773)"><text id="ProcessOnText1159" fill="#000000" font-size="13" x="0.0" y="13.325" font-family="微软雅黑" font-weight="normal" font-style="normal" text-decoration="none" family="微软雅黑" text-anchor="start" size="13">节点2第一个</text><text id="ProcessOnText1160" fill="#000000" font-size="13" x="0.0" y="29.575" font-family="微软雅黑" font-weight="normal" font-style="normal" text-decoration="none" family="微软雅黑" text-anchor="start" size="13">变量的地址</text></g></g></g></g></svg>